HIERARCHY
ROOT root
{
	OFFSET	0	13.1	24.9
	CHANNELS 6  Xposition Yposition Zposition Xrotation Yrotation Zrotation
	JOINT spine_1
	{
		OFFSET	0	9.99999	0
		CHANNELS 3  Xrotation Yrotation Zrotation
		JOINT spine_2
		{
			OFFSET	0	112	-10
			CHANNELS 3  Xrotation Yrotation Zrotation
			JOINT spine_3
			{
				OFFSET	0	206.5	19.3
				CHANNELS 3  Xrotation Yrotation Zrotation
				JOINT spine_4
				{
					OFFSET	0	110.4	14.6
					CHANNELS 3  Xrotation Yrotation Zrotation
					JOINT neck_1
					{
						OFFSET	0	71.8	-50.3
						CHANNELS 3  Xrotation Yrotation Zrotation
						JOINT neck_2
						{
							OFFSET	0	86.2	-25.8
							CHANNELS 3  Xrotation Yrotation Zrotation
							JOINT head_ee
							{
								OFFSET	0	179.8	-8.7
								CHANNELS 3  Xrotation Yrotation Zrotation
								End Site
								{
									OFFSET	1	0	0
								}
							}
						}
					}
					JOINT left_clavicle
					{
						OFFSET	-43.2	22.4	-70.8
						CHANNELS 3  Xrotation Yrotation Zrotation
						JOINT left_shoulder
						{
							OFFSET	-93.9	-5.79999	48.7
							CHANNELS 3  Xrotation Yrotation Zrotation
							JOINT left_elbow
							{
								OFFSET	-291.4	-30.8	15.2
								CHANNELS 3  Xrotation Yrotation Zrotation
								JOINT left_lowarm_twist
								{
									OFFSET	-110.7	-3.89999	13.6
									CHANNELS 3  Xrotation Yrotation Zrotation
									JOINT left_hand
									{
										OFFSET	-110.7	-3.89999	13.6
										CHANNELS 3  Xrotation Yrotation Zrotation
										JOINT left_ee
										{
											OFFSET	-80.8	-5.10001	12.1
											CHANNELS 3  Xrotation Yrotation Zrotation
											End Site
											{
												OFFSET	1	0	0
											}
										}
									}
								}
							}
						}
					}
					JOINT right_clavicle
					{
						OFFSET	43.2	22.4	-70.8
						CHANNELS 3  Xrotation Yrotation Zrotation
						JOINT right_shoulder
						{
							OFFSET	93.9	-5.79999	48.7
							CHANNELS 3  Xrotation Yrotation Zrotation
							JOINT right_elbow
							{
								OFFSET	291.4	-30.8	15.2
								CHANNELS 3  Xrotation Yrotation Zrotation
								JOINT right_lowarm_twist
								{
									OFFSET	110.7	-3.89999	13.6
									CHANNELS 3  Xrotation Yrotation Zrotation
									JOINT right_hand
									{
										OFFSET	110.7	-3.89999	13.6
										CHANNELS 3  Xrotation Yrotation Zrotation
										JOINT right_ee
										{
											OFFSET	80.8	-5.10001	12.1
											CHANNELS 3  Xrotation Yrotation Zrotation
											End Site
											{
												OFFSET	1	0	0
											}
										}
									}
								}
							}
						}
					}
				}
			}
		}
	}
	JOINT left_hip
	{
		OFFSET	-82.8	-127.5	0.300001
		CHANNELS 3  Xrotation Yrotation Zrotation
		JOINT left_knee
		{
			OFFSET	-28.2	-396.7	2.2
			CHANNELS 3  Xrotation Yrotation Zrotation
			JOINT left_ankle
			{
				OFFSET	-11.7	-411.3	35.4
				CHANNELS 3  Xrotation Yrotation Zrotation
				JOINT left_toes
				{
					OFFSET	0	-60	-88.6
					CHANNELS 3  Xrotation Yrotation Zrotation
					JOINT left_foot_ee
					{
						OFFSET	-22.5	-16.5	-42.2
						CHANNELS 3  Xrotation Yrotation Zrotation
						End Site
						{
							OFFSET	1	0	0
						}
					}
				}
			}
		}
	}
	JOINT right_hip
	{
		OFFSET	82.8	-127.5	0.300001
		CHANNELS 3  Xrotation Yrotation Zrotation
		JOINT right_knee
		{
			OFFSET	28.2	-396.7	2.2
			CHANNELS 3  Xrotation Yrotation Zrotation
			JOINT right_ankle
			{
				OFFSET	11.7	-411.3	35.4
				CHANNELS 3  Xrotation Yrotation Zrotation
				JOINT right_toes
				{
					OFFSET	0	-60	-88.6
					CHANNELS 3  Xrotation Yrotation Zrotation
					JOINT right_foot_ee
					{
						OFFSET	22.5	-16.5	-42.2
						CHANNELS 3  Xrotation Yrotation Zrotation
						End Site
						{
							OFFSET	1	0	0
						}
					}
				}
			}
		}
	}
}
MOTION
Frames: 6
Frame Time: 0.02
642.417 692.452 -665.122 -167.151 -72.6672 -169.851 0.718904 1.0582 3.29265 0.724537 0.846657 3.35322 0.776745 0.170551 3.45413 0.760807 0.713612 3.38399 -13.2368 6.00724 -7.40028 -13.2507 16.0402 -5.25091 -0.0 0.0 -0.0 -2.96637 22.4188 -1.55486 -19.3965 -18.9424 72.2162 0.235226 -6.64652 0.0136589 -45.5326 -3.55784 4.42911 1.55521 10.9504 14.6036 -0.0 0.0 -0.0 12.6941 21.3969 -25.428 -6.67263 38.0984 -42.4853 3.21899 57.8945 -1.78077 10.2036 -0.24623 1.27844 -4.83695 -5.04941 31.2712 0.0 0.0 0.0 34.6617 6.34974 -7.12003 -2.70791 0.101985 0.403023 -20.965 14.0143 3.16627 4.70752 -0.0 -0.0 -0.0 0.0 -0.0 -5.23908 1.09035 9.73368 -18.5537 -0.310046 -2.81792 37.123 31.1084 5.70524 -12.7903 0.0 0.0 0.0 0.0 0.0 
673.268 693.739 -669.602 -168.664 -72.1326 -171.431 0.620788 1.20448 3.25069 0.626116 0.995304 3.32065 0.686746 0.317547 3.45188 0.671147 0.858415 3.3586 -12.7612 5.96681 -7.51621 -12.7553 16.0782 -5.44495 -0.0 0.0 -0.0 -2.84315 22.4475 -1.37604 -19.4916 -18.8737 72.4652 0.244003 -6.89217 0.0146934 -45.4056 -3.54351 4.42131 1.60975 10.7131 14.8805 -0.0 0.0 -0.0 12.7486 21.4581 -25.5493 -7.30603 37.5506 -43.1199 3.21728 57.8808 -1.77932 10.1538 -0.245584 1.27211 -4.81466 -5.06112 31.0908 0.0 0.0 0.0 34.2298 6.71847 -5.6021 -4.18375 0.149506 0.624531 -21.6733 14.4923 3.27644 4.58887 -0.0 -0.0 -0.0 0.0 -0.0 -5.36241 0.943301 11.2411 -18.5582 -0.31001 -2.8186 36.9743 30.8386 5.67006 -13.0232 0.0 0.0 0.0 0.0 0.0 
700.028 695.049 -681.384 -167.791 -71.6997 -170.938 0.473695 1.2492 3.26243 0.479016 1.03919 3.3352 0.542787 0.349022 3.47572 0.527043 0.893255 3.37718 -11.1998 6.42062 -7.45243 -11.159 17.0237 -5.49327 -0.0 0.0 -0.0 -2.70904 22.7956 -1.12178 -19.3466 -18.8614 72.6191 0.289227 -8.15371 0.0206146 -45.3121 -3.53298 4.41554 1.34434 9.50402 12.688 -0.0 0.0 -0.0 12.6506 20.8404 -25.3716 -7.70392 36.9889 -43.5753 3.21179 57.8368 -1.77467 10.1055 -0.244953 1.26597 -4.79916 -5.07258 30.9634 0.0 0.0 0.0 34.9456 6.85649 -5.08902 -11.5919 0.301073 1.75045 -20.7944 16.7979 3.15838 6.53986 -0.0 -0.0 -0.0 0.0 -0.0 -8.04851 1.86628 13.5361 -19.716 -0.29891 -2.99591 36.6353 30.6204 5.61849 -13.1763 0.0 0.0 0.0 0.0 0.0 
724.968 692.038 -694.031 -169.452 -71.6526 -173.827 0.271626 1.31274 3.46227 0.277634 1.0899 3.53866 0.349033 0.345524 3.68637 0.331259 0.923006 3.58576 -10.2185 6.90146 -7.21946 -10.1612 17.843 -5.29912 -0.0 0.0 -0.0 -2.62428 23.1446 -0.938421 -19.3274 -18.8304 72.8452 0.321327 -9.04444 0.0254145 -45.2463 -3.52559 4.41148 1.15866 8.6563 11.1481 -0.0 0.0 -0.0 12.5647 20.3801 -25.2076 -7.98451 35.9959 -43.8645 3.19322 57.687 -1.75896 10.0715 -0.244506 1.26166 -4.76874 -5.07028 30.7297 0.0 0.0 0.0 35.4529 6.92726 -3.19763 -16.7596 0.320144 2.54284 -20.5154 18.4117 3.12952 7.78684 -0.0 -0.0 -0.0 0.0 -0.0 -9.97574 1.98036 14.6927 -20.5253 -0.289023 -3.1197 36.3482 30.4772 5.5777 -13.4021 0.0 0.0 0.0 0.0 0.0 
749.521 695.353 -701.506 -168.973 -71.7832 -173.701 0.143939 1.02523 3.44065 0.150164 0.804356 3.49882 0.203212 0.0643727 3.5894 0.185788 0.630086 3.53432 -9.66939 7.93214 -5.88286 -9.65548 18.9035 -3.81585 -0.0 0.0 -0.0 -2.20593 23.029 -0.380475 -18.8357 -18.8009 72.4389 0.365062 -10.2508 0.0327442 -44.2226 -3.41101 4.34717 1.14306 7.11763 10.4625 -0.0 0.0 -0.0 12.5964 20.6487 -25.2608 -8.52912 35.3027 -44.2714 3.18272 57.6018 -1.7501 9.11023 -0.230792 1.13964 -4.45514 -4.9458 28.415 0.0 0.0 0.0 35.8124 4.0509 0.0127631 -20.6764 0.286984 3.14279 -23.1538 24.0506 3.61236 9.88994 -0.0 -0.0 -0.0 0.0 -0.0 -11.4128 3.14319 15.8742 -19.5657 -0.300553 -2.97291 36.5026 27.1126 5.37772 -14.8732 0.0 0.0 0.0 0.0 0.0 
770.375 695.334 -709.836 -168.662 -72.8422 -174.387 0.114482 0.785872 3.45467 0.120944 0.564588 3.4976 0.159078 -0.173165 3.53859 0.141816 0.387508 3.52159 -8.47431 8.72264 -5.47208 -8.42914 20.1276 -3.43858 -0.0 0.0 -0.0 -1.91329 22.8158 -0.0108563 -18.0367 -19.1112 72.0585 0.421874 -11.8042 0.0436123 -43.5704 -3.33862 4.30513 1.22844 5.48541 10.4038 -0.0 0.0 -0.0 12.5524 23.0107 -24.9586 -9.39993 34.4285 -44.7118 3.09633 56.8852 -1.67744 8.44063 -0.220031 1.05478 -4.07044 -4.64199 25.732 0.0 0.0 0.0 35.8522 -0.0895814 1.79714 -23.416 0.23946 3.56044 -24.7602 28.8102 3.96776 11.9916 -0.0 -0.0 -0.0 0.0 -0.0 -13.0123 4.3174 17.5426 -19.1951 -0.304347 -2.91617 35.9822 22.619 5.08671 -16.2325 0.0 0.0 0.0 0.0 0.0 
